{"title":"Kaash Tum Hote (2014) Web Rip - XviD - [1CD] - Eng Subs - Team I","uid":11987496,"size":731186974,"categoryP":"video","categoryS":"movies","magnet":"?xt=urn:btih:1eb10a422c9d98e986c4ddfba4acd2b0304332e5&amp;dn=Kaash+Tum+Hote+%282014%29+Web+Rip+-+XviD+-+%5B1CD%5D+-+Eng+Subs+-+Team+I&amp;tr=udp%3A%2F%2Ftracker.openbittorrent.com%3A80&amp;tr=udp%3A%2F%2Fopen.demonii.com%3A1337&amp;tr=udp%3A%2F%2Ftracker.coppersurfer.tk%3A6969&amp;tr=udp%3A%2F%2Fexodus.desync.com%3A6969","seeders":1,"leechers":0,"uploader":"SS132203","files":4,"time":1433405867,"description":"Kaash Tum Hote (2014) Web Rip - XviD - [1CD] - Eng Subs - Team IcTv\n &lt;a href=&quot;\nhttp://imgsparrow.co/image/47&quot; rel=&quot;nofollow&quot; target=&quot;_NEW&quot;&gt;\nhttp://imgsparrow.co/image/47&lt;/a&gt;\n &lt;a href=&quot;\nhttp://imgsparrow.co/image/gi&quot; rel=&quot;nofollow&quot; target=&quot;_NEW&quot;&gt;\nhttp://imgsparrow.co/image/gi&lt;/a&gt;\n\nInfo : - \n\nAll Credit Goes To Intellect Clever &amp; IcTv\nSample Within Torrent\n\nMovie Info\nBanner : Vivek Films Production House\nYear : 2015\nCast : Mukesh Bharti.Preeti Jhangiani.Manju Bharti.\nVideo: XviD\nAudio : MP 3\nGenre : Comedy\nSubtitles :English\nResolution : 640 x 272\nRuntime : 2hr 10min XX\nSource : DDR (Thanks)\n\nFormat : AVI\nFormat/Info : Audio Video Interleave\nFile size : 693 MiB\nDuration : 2h 10mn\nOverall bit rate : 743 Kbps\n\nVideo\nID : 0\nFormat : MPEG-4 Visual\nFormat profile : Advanced Simple@L5\nFormat settings, BVOP : 2\nFormat settings, QPel : No\nFormat settings, GMC : No warppoints\nFormat settings, Matrix : Default (H.263)\nCodec ID : XVID\nCodec ID/Hint : XviD\nDuration : 2h 10mn\nBit rate : 609 Kbps\nWidth : 640 pixels\nHeight : 272 pixels\nDisplay aspect ratio : 2.35:1\nFrame rate : 23.976 fps\nColor space : YUV\nChroma subsampling : 4:2:0\nBit depth : 8 bits\nScan type : Progressive\nCompression mode : Lossy\nBits/(Pixel*Frame) : 0.146\nStream size : 568 MiB (82%)\n\nAudio\nID : 1\nFormat : MPEG Audio\nFormat version : Version 1\nFormat profile : Layer 3\nMode : Joint stereo\nMode extension : MS Stereo\nCodec ID : 55\nCodec ID/Hint : MP3\nDuration : 2h 10mn\nBit rate mode : Constant\nBit rate : 128 Kbps\nChannel(s) : 2 channels\nSampling rate : 48.0 KHz\nCompression mode : Lossy\nStream size : 119 MiB (17%)\n\nScreens : - \n &lt;a href=&quot;\nhttp://imgsparrow.co/image/gV&quot; rel=&quot;nofollow&quot; target=&quot;_NEW&quot;&gt;\nhttp://imgsparrow.co/image/gV&lt;/a&gt; &lt;a href=&quot;\nhttp://imgsparrow.co/image/gl&quot; rel=&quot;nofollow&quot; target=&quot;_NEW&quot;&gt;\nhttp://imgsparrow.co/image/gl&lt;/a&gt; &lt;a href=&quot;\nhttp://imgsparrow.co/image/gs&quot; rel=&quot;nofollow&quot; target=&quot;_NEW&quot;&gt;\nhttp://imgsparrow.co/image/gs&lt;/a&gt; &lt;a href=&quot;\nhttp://imgsparrow.co/image/gS&quot; rel=&quot;nofollow&quot; target=&quot;_NEW&quot;&gt;\nhttp://imgsparrow.co/image/gS&lt;/a&gt; &lt;a href=&quot;\nhttp://imgsparrow.co/image/gR&quot; rel=&quot;nofollow&quot; target=&quot;_NEW&quot;&gt;\nhttp://imgsparrow.co/image/gR&lt;/a&gt; &lt;a href=&quot;\nhttp://imgsparrow.co/image/gv&quot; rel=&quot;nofollow&quot; target=&quot;_NEW&quot;&gt;\nhttp://imgsparrow.co/image/gv&lt;/a&gt; &lt;a href=&quot;\nhttp://imgsparrow.co/image/gx&quot; rel=&quot;nofollow&quot; target=&quot;_NEW&quot;&gt;\nhttp://imgsparrow.co/image/gx&lt;/a&gt; &lt;a href=&quot;\nhttp://imgsparrow.co/image/gC&quot; rel=&quot;nofollow&quot; target=&quot;_NEW&quot;&gt;\nhttp://imgsparrow.co/image/gC&lt;/a&gt; &lt;a href=&quot;\nhttp://imgsparrow.co/image/g1&quot; rel=&quot;nofollow&quot; target=&quot;_NEW&quot;&gt;\nhttp://imgsparrow.co/image/g1&lt;/a&gt; &lt;a href=&quot;\nhttp://imgsparrow.co/image/q6&quot; rel=&quot;nofollow&quot; target=&quot;_NEW&quot;&gt;\nhttp://imgsparrow.co/image/q6&lt;/a&gt;\n &lt;a href=&quot;\nhttp://imgsparrow.co/image/N2&quot; rel=&quot;nofollow&quot; target=&quot;_NEW&quot;&gt;\nhttp://imgsparrow.co/image/N2&lt;/a&gt;","torrent":{"xt":"urn:btih:1eb10a422c9d98e986c4ddfba4acd2b0304332e5","amp;dn":"Kaash+Tum+Hote+%282014%29+Web+Rip+-+XviD+-+%5B1CD%5D+-+Eng+Subs+-+Team+I","amp;tr":["udp%3A%2F%2Ftracker.openbittorrent.com%3A80","udp%3A%2F%2Fopen.demonii.com%3A1337","udp%3A%2F%2Ftracker.coppersurfer.tk%3A6969","udp%3A%2F%2Fexodus.desync.com%3A6969"],"infoHash":"1eb10a422c9d98e986c4ddfba4acd2b0304332e5","infoHashBuffer":{"type":"Buffer","data":[30,177,10,66,44,157,152,233,134,196,221,251,164,172,210,176,48,67,50,229]},"announce":[],"urlList":[]}}